<?xml version="1.0" standalone="no"?>
<!DOCTYPE svg PUBLIC "-//W3C//DTD SVG 1.1//EN" "http://www.w3.org/Graphics/SVG/1.1/DTD/svg11.dtd">
<svg xmlns="http://www.w3.org/2000/svg" version="1.2" viewBox="0 0 282 100" width="282" height="100">
	<style>
		.s0 { fill: #202895 } 
	</style>
	<path id="průmysl" class="s0" aria-label="průmysl" d="m19.6 34.2v-5.2h-9.1v53.2h9.1v-22.3c2.2 2.9 6.2 5.7 11.9 5.7 9.2 0 16.4-7.5 16.4-18.7 0-11.3-7.2-18.5-16.4-18.5-5.6 0-9.8 2.7-11.9 5.8zm19 12.7c0 6.8-4.6 10.7-9.5 10.7-4.9 0-9.5-3.8-9.5-10.6 0-6.8 4.6-10.6 9.5-10.6 4.9 0 9.5 3.6 9.5 10.5zm25 0.2c0-7 3.2-9.1 8.6-9.1h2.4v-9.5c-5 0-8.7 2.4-11 6.1v-5.6h-9.1v36h9.1zm50.9-18.1h-9.2v19.9c0 5.7-3.1 8.9-8 8.9-4.9 0-8-3.2-8-8.9v-19.9h-9.1v21.2c0 9.8 6 15.3 14.4 15.3 4.5 0 8.4-2 10.7-5v4.5h9.2zm-17-7.3c-1.7 0-3.1-1.4-3.1-3.3 0-2 1.4-3.2 3.1-3.2 1.7 0 3.1 1.2 3.1 3.2 0 1.9-1.4 3.3-3.1 3.3zm0-10.7c-4.1 0-7.6 2.8-7.6 7.4 0 4.7 3.5 7.5 7.6 7.5 4.2 0 7.6-2.8 7.6-7.5 0-4.6-3.4-7.4-7.6-7.4zm76.4 54.1h9.1v-21.2c0-9.9-6.1-15.4-14.8-15.4-5.3 0-10 2.8-12.3 6.9-2.5-4.5-7.1-6.9-12.7-6.9-4.5 0-8.3 1.9-10.6 4.9v-4.4h-9.1v36.1h9.1v-19.9c0-5.8 3.2-8.7 8.1-8.7 4.8 0 8 2.9 8 8.7v19.9h9.1v-19.9c0-5.8 3.2-8.7 8.1-8.7 4.8 0 8 2.9 8 8.7zm32.9-10.9l-9.3-25.2h-10.2l14.5 35.2-7.8 17.9h9.6l22.3-53.1h-9.6zm51.6 0.6c-0.3-13.2-20.3-9.1-20.3-15.6 0-2.1 1.8-3.5 5.2-3.5 3.6 0 5.8 1.9 6 4.7h8.7c-0.5-7.1-5.7-11.9-14.5-11.9-8.9 0-14.2 4.8-14.2 10.8 0 13.2 20.4 9.1 20.4 15.5 0 2.1-2 3.7-5.6 3.7-3.6 0-6.1-2-6.5-4.8h-9.1c0.4 6.7 6.7 12 15.7 12 8.8 0 14.2-4.7 14.2-10.9zm8 10.3h9.1v-48.1h-9.1z"/>
</svg>